<svg id="visual" viewBox="0 0 900 600" width="900" height="600" xmlns="http://www.w3.org/2000/svg" xmlns:xlink="http://www.w3.org/1999/xlink" version="1.1"><g stroke-width="1" stroke-linejoin="bevel"><path d="M400 314L304 334L302 387Z" fill="#151e38" stroke="#151e38"></path><path d="M302 387L426 439L400 314Z" fill="#753a67" stroke="#753a67"></path><path d="M302 387L335 474L426 439Z" fill="#ba4d69" stroke="#ba4d69"></path><path d="M335 474L367 489L426 439Z" fill="#ec7556" stroke="#ec7556"></path><path d="M304 334L222 380L302 387Z" fill="#753a67" stroke="#753a67"></path><path d="M302 387L183 468L335 474Z" fill="#001122" stroke="#001122"></path><path d="M426 439L499 371L400 314Z" fill="#99426b" stroke="#99426b"></path><path d="M499 371L499 274L400 314Z" fill="#001122" stroke="#001122"></path><path d="M400 314L335 174L304 334Z" fill="#ec7556" stroke="#ec7556"></path><path d="M499 274L470 224L400 314Z" fill="#99426b" stroke="#99426b"></path><path d="M304 334L202 269L222 380Z" fill="#52325d" stroke="#52325d"></path><path d="M470 224L419 190L400 314Z" fill="#52325d" stroke="#52325d"></path><path d="M335 174L202 269L304 334Z" fill="#753a67" stroke="#753a67"></path><path d="M419 190L335 174L400 314Z" fill="#ba4d69" stroke="#ba4d69"></path><path d="M117 472L183 468L74 423Z" fill="#31294d" stroke="#31294d"></path><path d="M222 380L183 468L302 387Z" fill="#f99048" stroke="#f99048"></path><path d="M305 600L375 600L367 489Z" fill="#f99048" stroke="#f99048"></path><path d="M565 536L539 469L504 600Z" fill="#31294d" stroke="#31294d"></path><path d="M426 439L539 469L499 371Z" fill="#fcaf3c" stroke="#fcaf3c"></path><path d="M499 371L589 325L499 274Z" fill="#d65e61" stroke="#d65e61"></path><path d="M629 436L589 325L499 371Z" fill="#ba4d69" stroke="#ba4d69"></path><path d="M499 274L623 197L470 224Z" fill="#31294d" stroke="#31294d"></path><path d="M305 600L367 489L335 474Z" fill="#d65e61" stroke="#d65e61"></path><path d="M367 489L504 600L426 439Z" fill="#d65e61" stroke="#d65e61"></path><path d="M421 121L289 134L335 174Z" fill="#753a67" stroke="#753a67"></path><path d="M335 174L289 134L202 269Z" fill="#001122" stroke="#001122"></path><path d="M221 600L305 600L335 474Z" fill="#d65e61" stroke="#d65e61"></path><path d="M470 224L421 121L419 190Z" fill="#fcaf3c" stroke="#fcaf3c"></path><path d="M419 190L421 121L335 174Z" fill="#99426b" stroke="#99426b"></path><path d="M514 74L421 121L470 224Z" fill="#fcaf3c" stroke="#fcaf3c"></path><path d="M289 134L186 177L202 269Z" fill="#f99048" stroke="#f99048"></path><path d="M202 269L108 298L222 380Z" fill="#31294d" stroke="#31294d"></path><path d="M98 213L108 298L202 269Z" fill="#151e38" stroke="#151e38"></path><path d="M74 423L183 468L222 380Z" fill="#753a67" stroke="#753a67"></path><path d="M183 468L221 600L335 474Z" fill="#31294d" stroke="#31294d"></path><path d="M504 600L539 469L426 439Z" fill="#52325d" stroke="#52325d"></path><path d="M539 469L629 436L499 371Z" fill="#d65e61" stroke="#d65e61"></path><path d="M90 600L221 600L183 468Z" fill="#151e38" stroke="#151e38"></path><path d="M375 600L504 600L367 489Z" fill="#fcaf3c" stroke="#fcaf3c"></path><path d="M565 536L629 436L539 469Z" fill="#ec7556" stroke="#ec7556"></path><path d="M108 298L74 423L222 380Z" fill="#151e38" stroke="#151e38"></path><path d="M117 472L90 600L183 468Z" fill="#31294d" stroke="#31294d"></path><path d="M186 177L98 213L202 269Z" fill="#d65e61" stroke="#d65e61"></path><path d="M108 298L0 363L74 423Z" fill="#52325d" stroke="#52325d"></path><path d="M134 105L98 213L186 177Z" fill="#fcaf3c" stroke="#fcaf3c"></path><path d="M134 105L170 117L172 0Z" fill="#ba4d69" stroke="#ba4d69"></path><path d="M289 134L170 117L186 177Z" fill="#ec7556" stroke="#ec7556"></path><path d="M686 222L623 197L589 325Z" fill="#ba4d69" stroke="#ba4d69"></path><path d="M589 325L623 197L499 274Z" fill="#753a67" stroke="#753a67"></path><path d="M596 600L661 466L565 536Z" fill="#ba4d69" stroke="#ba4d69"></path><path d="M565 536L661 466L629 436Z" fill="#d65e61" stroke="#d65e61"></path><path d="M629 436L712 395L589 325Z" fill="#ec7556" stroke="#ec7556"></path><path d="M623 197L514 74L470 224Z" fill="#52325d" stroke="#52325d"></path><path d="M421 121L315 0L289 134Z" fill="#99426b" stroke="#99426b"></path><path d="M504 600L596 600L565 536Z" fill="#fcaf3c" stroke="#fcaf3c"></path><path d="M172 0L170 117L289 134Z" fill="#fcaf3c" stroke="#fcaf3c"></path><path d="M170 117L134 105L186 177Z" fill="#ba4d69" stroke="#ba4d69"></path><path d="M793 423L712 395L661 466Z" fill="#151e38" stroke="#151e38"></path><path d="M661 466L712 395L629 436Z" fill="#ba4d69" stroke="#ba4d69"></path><path d="M623 197L632 94L514 74Z" fill="#753a67" stroke="#753a67"></path><path d="M726 326L686 222L589 325Z" fill="#753a67" stroke="#753a67"></path><path d="M0 487L90 600L117 472Z" fill="#fcaf3c" stroke="#fcaf3c"></path><path d="M0 263L0 363L108 298Z" fill="#001122" stroke="#001122"></path><path d="M74 423L0 487L117 472Z" fill="#fcaf3c" stroke="#fcaf3c"></path><path d="M0 263L108 298L98 213Z" fill="#151e38" stroke="#151e38"></path><path d="M409 0L315 0L421 121Z" fill="#31294d" stroke="#31294d"></path><path d="M514 74L409 0L421 121Z" fill="#753a67" stroke="#753a67"></path><path d="M712 395L726 326L589 325Z" fill="#151e38" stroke="#151e38"></path><path d="M0 182L0 263L98 213Z" fill="#151e38" stroke="#151e38"></path><path d="M0 363L0 487L74 423Z" fill="#31294d" stroke="#31294d"></path><path d="M686 222L632 94L623 197Z" fill="#52325d" stroke="#52325d"></path><path d="M514 74L529 0L409 0Z" fill="#ec7556" stroke="#ec7556"></path><path d="M612 0L529 0L514 74Z" fill="#31294d" stroke="#31294d"></path><path d="M134 105L0 182L98 213Z" fill="#d65e61" stroke="#d65e61"></path><path d="M0 80L0 182L134 105Z" fill="#31294d" stroke="#31294d"></path><path d="M596 600L688 600L661 466Z" fill="#151e38" stroke="#151e38"></path><path d="M712 395L793 423L726 326Z" fill="#001122" stroke="#001122"></path><path d="M315 0L172 0L289 134Z" fill="#151e38" stroke="#151e38"></path><path d="M0 487L0 600L90 600Z" fill="#99426b" stroke="#99426b"></path><path d="M810 463L793 423L661 466Z" fill="#001122" stroke="#001122"></path><path d="M823 211L732 80L686 222Z" fill="#99426b" stroke="#99426b"></path><path d="M730 0L612 0L632 94Z" fill="#31294d" stroke="#31294d"></path><path d="M732 80L632 94L686 222Z" fill="#001122" stroke="#001122"></path><path d="M632 94L612 0L514 74Z" fill="#52325d" stroke="#52325d"></path><path d="M172 0L92 0L134 105Z" fill="#d65e61" stroke="#d65e61"></path><path d="M92 0L0 80L134 105Z" fill="#151e38" stroke="#151e38"></path><path d="M688 600L810 463L661 466Z" fill="#ec7556" stroke="#ec7556"></path><path d="M823 211L686 222L726 326Z" fill="#753a67" stroke="#753a67"></path><path d="M831 287L726 326L793 423Z" fill="#ec7556" stroke="#ec7556"></path><path d="M900 373L831 287L793 423Z" fill="#31294d" stroke="#31294d"></path><path d="M831 287L823 211L726 326Z" fill="#151e38" stroke="#151e38"></path><path d="M688 600L799 600L810 463Z" fill="#d65e61" stroke="#d65e61"></path><path d="M810 463L900 373L793 423Z" fill="#001122" stroke="#001122"></path><path d="M92 0L0 0L0 80Z" fill="#52325d" stroke="#52325d"></path><path d="M824 0L730 0L732 80Z" fill="#31294d" stroke="#31294d"></path><path d="M732 80L730 0L632 94Z" fill="#31294d" stroke="#31294d"></path><path d="M900 186L820 96L823 211Z" fill="#753a67" stroke="#753a67"></path><path d="M823 211L820 96L732 80Z" fill="#ba4d69" stroke="#ba4d69"></path><path d="M900 485L900 373L810 463Z" fill="#52325d" stroke="#52325d"></path><path d="M831 287L900 186L823 211Z" fill="#d65e61" stroke="#d65e61"></path><path d="M900 373L900 303L831 287Z" fill="#f99048" stroke="#f99048"></path><path d="M799 600L900 485L810 463Z" fill="#ec7556" stroke="#ec7556"></path><path d="M900 303L900 186L831 287Z" fill="#31294d" stroke="#31294d"></path><path d="M900 95L824 0L820 96Z" fill="#fcaf3c" stroke="#fcaf3c"></path><path d="M820 96L824 0L732 80Z" fill="#99426b" stroke="#99426b"></path><path d="M799 600L900 600L900 485Z" fill="#31294d" stroke="#31294d"></path><path d="M900 186L900 95L820 96Z" fill="#52325d" stroke="#52325d"></path><path d="M900 95L900 0L824 0Z" fill="#fcaf3c" stroke="#fcaf3c"></path></g></svg>